# xmcd
#
# Track frame offsets:
#	150
#	14213
#	28526
#	44771
#	57028
#	70668
#	88300
#	117591
#	129835
#	153539
#	168713
#
# Disc length: 2513 seconds
#
# Revision: 1
# Processed by: cddbd v1.5.2PL0 Copyright (c) Steve Scherf et al.
# Submitted via: audiograbber 1.83.01
#
DISCID=9c09cf0b
DTITLE=James Brown - Soulful Christmas
DYEAR=2013
DGENRE=Christmas
TTITLE0=Soulful Christmas
TTITLE1=Go Power at Christmas Time
TTITLE2=Hey America
TTITLE3=Let's Unite the Whole World at Christmas
TTITLE4=Santa Claus Go Straight to the Ghetto
TTITLE5=Merry Christmas Baby
TTITLE6=Let's Make Christmas Mean Something This Year
TTITLE7=The Christmas Song (version 1)
TTITLE8=Sweet Little Baby Boy (Parts 1 and 2)
TTITLE9=Please Come Home For Christmas
TTITLE10=Santa Clause is Definitely Here to Stay
EXTD=
EXTT0=
EXTT1=
EXTT2=
EXTT3=
EXTT4=
EXTT5=
EXTT6=
EXTT7=
EXTT8=
EXTT9=
EXTT10=
PLAYORDER=
